<svg xmlns="http://www.w3.org/2000/svg" viewBox="0 0 442.4 270.9">
  <defs>
    <linearGradient id="a" x1="180.7" y1="80.7" x2="142.6" y2="158.4" gradientUnits="userSpaceOnUse">
      <stop offset="0" stop-color="#3f873f"/>
      <stop offset=".3" stop-color="#3f8b3d"/>
      <stop offset=".6" stop-color="#3e9637"/>
      <stop offset=".9" stop-color="#3da92e"/>
      <stop offset="1" stop-color="#3dae2b"/>
    </linearGradient>
    <linearGradient id="b" x1="157.2" y1="121.3" x2="264" y2="42.4" gradientUnits="userSpaceOnUse">
      <stop offset=".1" stop-color="#3f873f"/>
      <stop offset=".4" stop-color="#52a044"/>
      <stop offset=".7" stop-color="#64b749"/>
      <stop offset=".9" stop-color="#6abf4b"/>
    </linearGradient>
  </defs>
  <path d="M218.7 271a16.7 16.7 0 01-8.3-2.3l-26.4-15.6c-4-2.2-2-3-1-3.4 5.2-1.8 6.3-2.2 11.9-5.4.6-.4 1.3-.2 1.9.1l20.3 12c.7.4 1.7.4 2.4 0l79-45.6a2.5 2.5 0 001.2-2.1V82.2c0-.9-.5-1.7-1.3-2.1l-79-45.6a2.5 2.5 0 00-2.4 0l-79 45.6a2.4 2.4 0 00-1.2 2.1v91.3c0 .8.5 1.6 1.2 2l21.6 12.5c11.7 5.9 18.9-.9 18.9-8V90c0-1.3 1-2.3 2.3-2.3h10c1.3 0 2.3 1 2.3 2.3v90.2c0 15.7-8.5 24.7-23.4 24.7-4.6 0-8.2 0-18.2-5l-20.7-12a16.5 16.5 0 01-8.3-14.3V82.2c0-6 3.2-11.4 8.3-14.3l79-45.6a17.2 17.2 0 0116.6 0l79 45.6a16.5 16.5 0 018.3 14.3v91.3c0 5.9-3.2 11.4-8.3 14.3l-79 45.6a16.7 16.7 0 01-8.3 2.3" fill="#689f63"/>
  <path d="M231 159.7c-34.5 0-41.7-15.8-41.7-29.1 0-1.3 1-2.3 2.3-2.3h10.2c1.1 0 2.1.8 2.3 2 1.5 10.4 6.2 15.6 27 15.6 16.6 0 23.6-3.8 23.6-12.5 0-5-2-8.8-27.9-11.3-21.7-2.1-35-6.9-35-24.2 0-16 13.4-25.4 36-25.4 25.3 0 37.8 8.8 39.4 27.7.1.6-.2 1.2-.5 1.7-.4.4-.9.7-1.5.7h-10.3c-1.1 0-2-.8-2.2-1.8-2.5-11-8.4-14.5-24.9-14.5-18.4 0-20.5 6.4-20.5 11.2 0 5.8 2.5 7.5 27 10.8 24.3 3.2 35.9 7.8 35.9 24.5s-14.9 26.8-40.8 26.8z" fill="#689f63"/>
  <path d="M293.2 98.2a3 3 0 01-3-3V76.4c0-1.6 1.3-3 3-3h25.6v-7.5c0-1.6 1.3-3 3-3h10.3a3 3 0 013 3v7.6h10.9a3 3 0 013 3v18.8a3 3 0 01-3 3h-10.9v27.8c0 12.5 3.5 15 11.2 15 3.1 0 5.3-.4 7.5-1 1.2-.3 2.3.5 2.3 1.8v13.8c0 1-.6 1.8-1.5 2.2-2.6 1.4-6.1 2-10.6 2-17.4 0-26.6-9.8-26.6-31V98.2h-25.6z" fill="#fff" stroke="#fff" stroke-width="6"/>
  <path d="M309.2 82.4V94h-16a3 3 0 01-3-3V76.4c0-1.6 1.3-3 3-3h25.6v-7.5c0-1.6 1.3-3 3-3h10.3a3 3 0 013 3v7.6h10.9a3 3 0 013 3v18.8a3 3 0 01-3 3h-10.9v27.8c0 12.5 3.5 15 11.2 15 3.1 0 5.3-.4 7.5-1 1.2-.3 2.3.5 2.3 1.8v13.8c0 1-.6 1.8-1.5 2.2-2.6 1.4-6.1 2-10.6 2-17.4 0-26.6-9.8-26.6-31V94h-8.2z" fill="#333"/>
  <path d="M149 122.8c.8 0 1.5-.4 2-1l6.5-11.4 6.6 11.4c.4.6 1.1 1 1.9 1h12.7c1.4 0 2.3-1.4 1.7-2.6l-22.3-38.7 21.5-37.4c.7-1.2-.2-2.7-1.7-2.7h-12.7c-.8 0-1.5.4-2 1l-6.2 10.7-6.2-10.7c-.4-.6-1.1-1-1.9-1h-12.7c-1.4 0-2.3 1.4-1.7 2.6l21.5 37.4-22.3 38.7c-.7 1.2.2 2.7 1.7 2.7h12.6z" fill="#fff" stroke="#fff" stroke-width="6"/>
  <path d="M165.3 110.3l6.6 11.4c.4.6 1.1 1 1.9 1h12.7c1.4 0 2.3-1.4 1.7-2.6l-22.3-38.7 21.5-37.4c.7-1.2-.2-2.7-1.7-2.7h-12.7c-.8 0-1.5.4-2 1l-6.2 10.7-6.2-10.7c-.4-.6-1.1-1-1.9-1h-12.7c-1.4 0-2.3 1.4-1.7 2.6l21.5 37.4-22.3 38.7c-.7 1.2.2 2.7 1.7 2.7h12.7c.8 0 1.5-.4 2-1l6.5-11.4z" fill="#333"/>
  <path d="M269.9 43.4c0-1.6-1.3-3-3-3H129.3a3 3 0 00-3 3v131.4a3 3 0 003 3h137.6a3 3 0 003-3V43.4z" fill="#689f63"/>
  <path d="M218.8 27.2a8.3 8.3 0 00-8.3 0l-78.7 45.4a8.3 8.3 0 00-4.2 7.2v90.9c0 3 1.6 5.7 4.2 7.2l78.7 45.5a8.3 8.3 0 008.3 0l78.7-45.5a8.3 8.3 0 004.2-7.2V79.8c0-3-1.6-5.7-4.2-7.2l-78.7-45.4z" fill="#fff"/>
  <path d="M152.7 125.1l-18.9-10.9a1.2 1.2 0 00-1.2 0l-18.9 10.9a1.2 1.2 0 00-.6 1v21.8c0 .4.2.8.6 1l18.9 10.9c.4.2.8.2 1.2 0l18.9-10.9c.4-.2.6-.6.6-1v-21.8c0-.4-.2-.8-.6-1z" fill="url(#a)"/>
  <path d="M254.8 79.8c0-.4-.2-.8-.6-1l-18.9-10.9a1.2 1.2 0 00-1.2 0l-18.9 10.9a1.2 1.2 0 00-.6 1v21.8c0 .4.2.8.6 1l18.9 10.9c.4.2.8.2 1.2 0l18.9-10.9c.4-.2.6-.6.6-1V79.8zm-92.2 0c0-.4-.2-.8-.6-1l-18.9-10.9a1.2 1.2 0 00-1.2 0l-18.9 10.9a1.2 1.2 0 00-.6 1v21.8c0 .4.2.8.6 1l18.9 10.9c.4.2.8.2 1.2 0l18.9-10.9c.4-.2.6-.6.6-1V79.8z" fill="none"/>
  <path d="M254.8 79.8c0-.4-.2-.8-.6-1l-18.9-10.9a1.2 1.2 0 00-1.2 0l-18.9 10.9a1.2 1.2 0 00-.6 1v21.8c0 .4.2.8.6 1l18.9 10.9c.4.2.8.2 1.2 0l18.9-10.9c.4-.2.6-.6.6-1V79.8zm-92.2 0c0-.4-.2-.8-.6-1l-18.9-10.9a1.2 1.2 0 00-1.2 0l-18.9 10.9a1.2 1.2 0 00-.6 1v21.8c0 .4.2.8.6 1l18.9 10.9c.4.2.8.2 1.2 0l18.9-10.9c.4-.2.6-.6.6-1V79.8z" fill="none"/>
  <path d="M162.6 79.8c0-.4-.2-.8-.6-1l-18.9-10.9a1.2 1.2 0 00-1.2 0l-18.9 10.9a1.2 1.2 0 00-.6 1v21.8c0 .4.2.8.6 1l18.9 10.9c.4.2.8.2 1.2 0l18.9-10.9c.4-.2.6-.6.6-1V79.8z" fill="url(#b)"/>
</svg>