<svg xmlns="http://www.w3.org/2000/svg" viewBox="0 0 800 800" width="800" height="800">
  <!-- Background -->
  <rect width="800" height="800" fill="#f2f2ff" />
  
  <!-- Suit -->
  <path d="M300 350 L400 800 L500 800 L600 350 Z" fill="#2c3e50" />
  <path d="M300 350 L400 800 L300 800 L200 350 Z" fill="#2c3e50" />
  
  <!-- Shirt -->
  <path d="M300 350 L400 450 L500 350 L450 550 L350 550 Z" fill="#ecf0f1" />
  
  <!-- Tie -->
  <path d="M400 450 L380 550 L400 650 L420 550 Z" fill="#e74c3c" />
  
  <!-- Head -->
  <circle cx="400" cy="250" r="120" fill="#f5d7b4" />
  
  <!-- Hair -->
  <path d="M400 170 Q300 150 300 230 Q300 280 350 300 L350 250 L450 250 L450 300 Q500 280 500 230 Q500 150 400 170 Z" fill="#34495e" />
  
  <!-- Eyes -->
  <ellipse cx="350" cy="230" rx="15" ry="10" fill="#ffffff" />
  <ellipse cx="450" cy="230" rx="15" ry="10" fill="#ffffff" />
  <circle cx="350" cy="230" r="5" fill="#3498db" />
  <circle cx="450" cy="230" r="5" fill="#3498db" />
  
  <!-- Eyebrows -->
  <path d="M335 210 Q350 200 365 210" fill="none" stroke="#34495e" stroke-width="3" />
  <path d="M435 210 Q450 200 465 210" fill="none" stroke="#34495e" stroke-width="3" />
  
  <!-- Nose -->
  <path d="M400 240 L390 280 L410 280 Z" fill="#e0c4a7" />
  
  <!-- Mouth -->
  <path d="M370 310 Q400 330 430 310" fill="none" stroke="#c0392b" stroke-width="3" />
  
  <!-- Ears -->
  <path d="M280 250 Q270 230 280 210 Q290 200 300 210 Q310 220 300 250 Z" fill="#f5d7b4" />
  <path d="M520 250 Q530 230 520 210 Q510 200 500 210 Q490 220 500 250 Z" fill="#f5d7b4" />
</svg>