<svg xmlns="http://www.w3.org/2000/svg" viewBox="0 0 500 500">
  <!-- Background Circle -->
  <circle cx="250" cy="250" r="240" fill="#f0f0f0" />
  
  <!-- Head -->
  <circle cx="250" cy="180" r="100" fill="#FFD3B6" />
  
  <!-- Hair -->
  <path d="M250 80 Q 300 80 330 120 Q 350 150 350 200 Q 350 220 340 240 Q 330 260 310 270 L 300 200 Q 290 180 270 170 L 250 80 Z" fill="#333" />
  <path d="M250 80 Q 200 80 170 120 Q 150 150 150 200 Q 150 220 160 240 Q 170 260 190 270 L 200 200 Q 210 180 230 170 L 250 80 Z" fill="#333" />
  
  <!-- Eyes -->
  <ellipse cx="210" cy="170" rx="15" ry="10" fill="#333" />
  <ellipse cx="290" cy="170" rx="15" ry="10" fill="#333" />
  
  <!-- Eyebrows -->
  <path d="M195 155 Q 210 145 225 155" fill="none" stroke="#333" stroke-width="3" />
  <path d="M275 155 Q 290 145 305 155" fill="none" stroke="#333" stroke-width="3" />
  
  <!-- Nose -->
  <path d="M250 180 Q 255 200 250 210 Q 245 200 250 180" fill="#FFBEA0" />
  
  <!-- Mouth -->
  <path d="M220 220 Q 250 240 280 220" fill="none" stroke="#333" stroke-width="3" />
  
  <!-- Neck -->
  <path d="M220 280 L 220 320 L 280 320 L 280 280" fill="#FFD3B6" />
  
  <!-- Body/Shirt -->
  <path d="M180 320 L 150 420 L 350 420 L 320 320 Z" fill="#4285F4" />
  
  <!-- Collar -->
  <path d="M220 320 L 210 350 L 250 370 L 290 350 L 280 320 Z" fill="#2A56C6" />
</svg>